<?xml version="1.0" standalone="no"?>
<!DOCTYPE svg PUBLIC "-//W3C//DTD SVG 20010904//EN"
 "http://www.w3.org/TR/2001/REC-SVG-20010904/DTD/svg10.dtd">
<svg version="1.0" xmlns="http://www.w3.org/2000/svg"
 width="512.000000pt" height="512.000000pt" viewBox="0 0 512.000000 512.000000"
 preserveAspectRatio="xMidYMid meet">
<metadata>
Created by potrace 1.14, written by Peter Selinger 2001-2017
</metadata>
<g transform="translate(0.000000,512.000000) scale(0.100000,-0.100000)"
fill="#000000" stroke="none">
<path d="M0 2560 l0 -2560 2560 0 2560 0 0 2560 0 2560 -2560 0 -2560 0 0
-2560z m2204 25 c273 -957 499 -1748 502 -1758 5 -16 -8 -17 -207 -15 l-212 3
-73 280 c-41 154 -74 281 -74 283 0 1 -200 2 -443 2 l-444 0 -73 -285 -74
-285 -209 0 -209 0 5 28 c4 21 959 3370 993 3486 3 10 10 14 14 10 4 -5 231
-792 504 -1749z m1106 1674 c363 -35 633 -158 807 -368 142 -172 223 -411 223
-660 0 -235 -99 -464 -283 -657 -38 -41 -68 -76 -66 -78 2 -1 33 -22 69 -46
251 -168 381 -409 381 -708 0 -470 -280 -813 -750 -917 -127 -29 -257 -42
-488 -50 l-173 -6 0 1755 0 1755 88 -5 c48 -3 134 -10 192 -15z"/>
<path d="M1655 2983 c-26 -149 -81 -380 -171 -728 -73 -280 -132 -511 -130
-512 2 -2 158 -2 347 -1 l345 3 -128 490 c-85 329 -141 566 -169 720 -23 127
-45 233 -48 238 -4 4 -24 -91 -46 -210z"/>
<path d="M3420 3234 l0 -627 70 5 c99 7 167 43 261 138 61 61 86 96 123 171
25 52 54 123 63 159 20 78 22 257 4 345 -33 154 -139 295 -277 367 -67 36
-172 68 -221 68 l-23 0 0 -626z"/>
<path d="M3427 2273 c-4 -3 -7 -251 -7 -550 l0 -543 28 0 c55 1 179 28 240 53
138 57 256 171 301 292 29 77 42 200 31 289 -29 230 -187 411 -398 455 -58 12
-185 15 -195 4z"/>
</g>
</svg>
